<?xml version="1.0" encoding="utf-8"?>
<!-- Generator: Adobe Illustrator 15.0.2, SVG Export Plug-In . SVG Version: 6.00 Build 0)  -->
<!DOCTYPE svg PUBLIC "-//W3C//DTD SVG 1.1//EN" "http://www.w3.org/Graphics/SVG/1.1/DTD/svg11.dtd">
<svg version="1.1"
	 id="svg2" xmlns:dc="http://purl.org/dc/elements/1.1/" xmlns:cc="http://creativecommons.org/ns#" xmlns:rdf="http://www.w3.org/1999/02/22-rdf-syntax-ns#" xmlns:svg="http://www.w3.org/2000/svg" xmlns:sodipodi="http://sodipodi.sourceforge.net/DTD/sodipodi-0.dtd" xmlns:inkscape="http://www.inkscape.org/namespaces/inkscape" sodipodi:docname="Neues Dokument 1" inkscape:version="0.48.3.1 r9886"
	 xmlns="http://www.w3.org/2000/svg" xmlns:xlink="http://www.w3.org/1999/xlink" x="0px" y="0px" width="712.77px"
	 height="329.904px" viewBox="-42.907 303.04 712.77 329.904" enable-background="new -42.907 303.04 712.77 329.904"
	 xml:space="preserve">
<sodipodi:namedview  id="base" showgrid="false" inkscape:cy="452.31045" inkscape:cx="556.66896" inkscape:zoom="1" borderopacity="1.0" bordercolor="#666666" pagecolor="#ffffff" inkscape:window-maximized="1" inkscape:window-y="-8" inkscape:window-x="-8" inkscape:window-height="706" inkscape:window-width="1366" inkscape:current-layer="layer1" inkscape:document-units="px" inkscape:pageshadow="2" inkscape:pageopacity="0.0">
	</sodipodi:namedview>
<g id="layer1" inkscape:label="Ebene 1" inkscape:groupmode="layer">
	<g id="g3927" transform="matrix(1.2812113,0,0,1.2812113,-114.32877,-169.64345)">
		<g id="g3825" transform="translate(-63.52565,0.99258829)">
			
				<path id="path3757" sodipodi:ry="82.769058" sodipodi:rx="82.769058" sodipodi:cy="331.51895" sodipodi:cx="331.07623" sodipodi:type="arc" fill="#3291A3" d="
				M263.965,552.288c0,39.956-32.391,72.347-72.347,72.347c-39.956,0-72.347-32.39-72.347-72.347
				c0-39.956,32.391-72.347,72.347-72.347C231.574,479.941,263.965,512.331,263.965,552.288L263.965,552.288z"/>
			
				<path id="path3757-1" sodipodi:ry="82.769058" sodipodi:rx="82.769058" sodipodi:cy="331.51895" sodipodi:cx="331.07623" sodipodi:type="arc" fill="#3291A3" d="
				M449.383,517.794c0,59.18-54.263,107.156-121.2,107.156c-66.937,0-121.2-47.976-121.2-107.156s54.263-107.156,121.2-107.156
				C395.12,410.639,449.383,458.614,449.383,517.794L449.383,517.794z"/>
			
				<path id="path3757-1-7" sodipodi:ry="82.769058" sodipodi:rx="82.769058" sodipodi:cy="331.51895" sodipodi:cx="331.07623" sodipodi:type="arc" fill="#3291A3" d="
				M590.478,496.689c0,71.105-57.642,128.747-128.747,128.747c-71.104,0-128.746-57.642-128.746-128.747
				s57.642-128.747,128.746-128.747C532.836,367.942,590.478,425.584,590.478,496.689L590.478,496.689z"/>
			
				<path id="path3757-4" sodipodi:ry="82.769058" sodipodi:rx="82.769058" sodipodi:cy="331.51895" sodipodi:cx="331.07623" sodipodi:type="arc" fill="#3291A3" d="
				M675.596,541.37c0,45.713-37.057,82.769-82.768,82.769c-45.713,0-82.769-37.057-82.769-82.769
				c0-45.712,37.057-82.769,82.769-82.769C638.539,458.601,675.596,495.659,675.596,541.37L675.596,541.37z"/>
		</g>
		<g id="g3846" transform="matrix(-0.01849201,0.00501688,0.00501688,0.01849201,615.75006,533.3965)">
			<g id="Livello_x0020_1">
				<path id="path3839" inkscape:connector-curvature="0" fill="#FFFFFF" stroke="#FFFFFF" d="M8355.909-1514.531
					c-247.001,109.015-511.995,183.012-790.004,216.023c284-169.999,501.994-440.018,603.98-761.001
					c-265.98,158.021-559.986,271.998-872.997,334.002c-250.991-266.972-608.002-433.996-1003.987-433.979
					c-759.005-0.006-1374.998,615.99-1375.004,1374.995c-0.007,107.995,12,213.02,36.036,313.008
					c-1143.003-56.991-2156.04-604.999-2834.014-1436.98c-118.005,202.991-186,438.992-186.009,691.006
					c-0.017,476.989,243.007,897.973,612.007,1143.975c-225.018-7.004-437.004-68.984-622.982-171.984
					c-0.025,5.984-0.022,11.011-0.009,16.984c-0.009,666.016,473.994,1222.019,1103.006,1348.016
					c-115,30.994-237.016,47.981-362.034,47.976c-88.984,0.029-174.982-8.996-258.959-24.999
					c174.967,545.999,682.98,944.016,1283.999,954.982c-471.005,369.04-1062.996,589.007-1708.022,589.032
					c-110.996,0.024-219.99-7.007-327.983-19.01c608.022,390.01,1330.988,618.006,2108,617.991
					c2529.019-0.011,3911.967-2095.027,3911.988-3912c-0.001-60.014-1.004-119.015-4.025-178.004
					c268.997-193.999,502.006-436.023,686.019-712.032L8355.909-1514.531z"/>
			</g>
		</g>
		<g id="g3912" transform="matrix(0.63181067,0,0,0.63181067,466.84138,292.1833)">
			
				<path id="path3890" sodipodi:ry="24.467648" sodipodi:rx="24.467648" sodipodi:cy="465.46484" sodipodi:cx="128.86295" sodipodi:type="arc" stroke="#FFFFFF" stroke-width="6" d="
				M75.839,404.147c0,13.513-10.954,24.467-24.467,24.467s-24.468-10.954-24.468-24.467s10.955-24.468,24.468-24.468
				S75.839,390.634,75.839,404.147z"/>
			
				<path id="path3890-8" sodipodi:ry="24.467648" sodipodi:rx="24.467648" sodipodi:cy="465.46484" sodipodi:cx="128.86295" sodipodi:type="arc" stroke="#FF1B13" stroke-width="6" d="
				M63.924,404.147c0,6.932-5.621,12.553-12.553,12.553c-6.933,0-12.554-5.621-12.554-12.553c0-6.933,5.621-12.553,12.554-12.553
				C58.304,391.594,63.924,397.214,63.924,404.147z"/>
		</g>
		<path id="rect3916" inkscape:connector-curvature="0" sodipodi:nodetypes="cscccc" fill="#FF1B13" d="M500.265,524.552
			c0,0,1.997,0.389,2.972,0.675c1.011,0.297,2.972,1.073,2.972,1.073l-3.551,13.654l-6.228-0.571L500.265,524.552z"/>
		<g id="flowRoot3919" transform="matrix(0.57901333,0,0,0.50539608,210.36462,280.13454)">
		</g>
	</g>
</g>
</svg>
